<svg xmlns="http://www.w3.org/2000/svg" class="fadeup visible" width="89" height="40" viewBox="0 0 89 40" fill="none"><path d="M34.9916 28.6387C34.3042 28.6387 33.6168 28.2927 33.1692 27.6525C32.4019 26.5453 32.6097 24.9882 33.6168 24.1577L43.1122 16.424C43.9274 15.7493 45.0464 15.7493 45.8616 16.424L55.357 24.1577C56.38 24.9882 56.5719 26.5453 55.8206 27.6525C55.0533 28.7425 53.6146 28.9674 52.6075 28.137L44.4869 21.5106L36.3663 28.137C35.9667 28.483 35.4711 28.6387 34.9916 28.6387Z" fill="black"></path><path d="M2.29563 39.4166C1.60825 39.4166 0.9049 39.0706 0.457305 38.4131C-0.294007 37.3231 -0.102186 35.766 0.904896 34.9356L43.1224 0.506063C43.9376 -0.168688 45.0566 -0.168688 45.8719 0.506063L88.0733 34.9356C89.0964 35.766 89.3042 37.3231 88.5369 38.4131C87.7696 39.5204 86.3469 39.7453 85.3239 38.9149L44.4971 5.59263L3.67037 38.9149C3.27073 39.2436 2.77519 39.4166 2.29563 39.4166Z" fill="black"></path></svg>